<?xml version="1.0" encoding="UTF-8"?>
<svg version="1.1" xmlns="http://www.w3.org/2000/svg" width="512" height="512">
<path d="M0 0 C1.26989415 -0.00445784 2.53978829 -0.00891569 3.84816408 -0.01350862 C5.25510694 -0.01341933 6.66204979 -0.01322949 8.06899261 -0.01294994 C9.56547119 -0.01625041 11.06194887 -0.01997637 12.55842543 -0.02409142 C16.67220492 -0.03409884 20.78596983 -0.03782619 24.89975977 -0.04048073 C29.33623275 -0.04438755 33.77269423 -0.05396565 38.20915985 -0.0626936 C48.92432275 -0.0824478 59.63948658 -0.09252309 70.35466313 -0.10142139 C75.40270502 -0.10580617 80.45074586 -0.11117251 85.49878693 -0.11641026 C102.28337893 -0.13342182 119.06797028 -0.14791537 135.85256958 -0.155159 C140.20738475 -0.15706884 144.56219992 -0.15898918 148.91701508 -0.16094494 C149.99936131 -0.16142868 151.08170754 -0.16191242 152.19685215 -0.16241082 C169.72500437 -0.1707088 187.25308831 -0.19604213 204.78121072 -0.22852562 C222.78366071 -0.26161568 240.78607602 -0.27960954 258.78855658 -0.28280324 C268.89353769 -0.28496657 278.99841922 -0.2936894 289.10337067 -0.31926441 C297.71034796 -0.34099803 306.31720148 -0.34900875 314.9242031 -0.33929763 C319.31267259 -0.33476059 323.70088684 -0.3366043 328.08932114 -0.35605907 C332.11400006 -0.37374649 336.1382386 -0.37264824 340.16292256 -0.35716178 C341.6118562 -0.35479413 343.06082078 -0.35906517 344.50970727 -0.37099043 C358.51561417 -0.4790429 370.18735925 1.84428967 380.41213226 11.75922108 C388.11239016 20.01359183 389.88791382 29.26034064 389.87679291 40.17210865 C389.88124959 41.54000694 389.88124959 41.54000694 389.88579631 42.93553954 C389.89447004 45.99225454 389.89599044 49.0489303 389.89748383 52.10565662 C389.90211295 54.29703829 389.90713774 56.48841915 389.91252899 58.67979908 C389.92564627 64.63452968 389.9320967 70.58924901 389.93653965 76.5439918 C389.93947159 80.26532661 389.94357664 83.98665834 389.94804382 87.7079916 C389.96171728 99.3542063 389.9714004 111.00041454 389.97524571 122.64663666 C389.97568917 123.98616676 389.97613574 125.32569685 389.97658539 126.66522694 C389.97680682 127.32967403 389.97702825 127.99412113 389.97725639 128.67870299 C389.98120207 139.43842734 389.9986502 150.19808388 390.02194491 160.95778205 C390.0456924 172.01629336 390.05786464 183.07476897 390.05928683 194.13330585 C390.06033422 200.3375304 390.06622809 206.54165927 390.08410645 212.7458601 C390.1006032 218.58418681 390.10273473 224.42234609 390.09396744 230.26068783 C390.09319792 232.39958489 390.09752854 234.53849101 390.10742569 236.6773653 C390.1201771 239.60557983 390.11425091 242.53320418 390.10384369 245.46141529 C390.1159283 246.7199654 390.1159283 246.7199654 390.12825704 248.00394076 C390.03735736 258.9991659 386.33755672 268.03914562 378.91994476 276.11078358 C371.22922653 283.4130817 361.92566947 286.25377458 351.4671154 286.26564884 C350.19598786 286.26948999 348.92486031 286.27333113 347.61521375 286.27728868 C346.20689283 286.27650848 344.79857196 286.2756297 343.39025116 286.27466297 C341.89234739 286.27724733 340.39444432 286.28026069 338.89654219 286.28366637 C334.77889936 286.29173141 330.66127396 286.29352567 326.54362416 286.29426384 C322.10310095 286.29611527 317.66258677 286.3036631 313.22206879 286.31039906 C303.51119342 286.3239797 293.80032219 286.33000677 284.08943892 286.33440971 C278.02497107 286.33717277 271.96050482 286.34141026 265.89603806 286.34591389 C249.10286242 286.35810654 232.30968807 286.36840564 215.5165081 286.37178898 C214.44174039 286.37200854 213.36697269 286.37222811 212.25963626 286.37245433 C210.64364049 286.37278175 210.64364049 286.37278175 208.99499834 286.37311578 C206.81194011 286.37355924 204.62888189 286.37400581 202.44582367 286.37445545 C201.36295281 286.37467688 200.28008196 286.37489831 199.16439684 286.37512645 C181.62197393 286.37907361 164.07959257 286.39652515 146.53718571 286.41981497 C128.52344497 286.44353734 110.50972508 286.45599124 92.49596846 286.4571569 C82.38324637 286.45807319 72.27057842 286.46381408 62.15787125 286.48197651 C53.54572632 286.49738947 44.93365227 286.50249092 36.32149617 286.49423841 C31.92926733 286.49033606 27.53718116 286.49124118 23.14496994 286.50529575 C19.11922394 286.51805959 15.09372746 286.51681548 11.06798168 286.50470504 C9.61639485 286.50275233 8.1647902 286.50580672 6.71322839 286.5145494 C-6.92462535 286.59144829 -18.03434621 284.85835873 -28.23630524 275.28265858 C-36.32729469 266.65914116 -38.4157995 257.58476185 -38.40409088 246.0963335 C-38.407062 245.18440131 -38.41003313 244.27246911 -38.41309428 243.33290261 C-38.42176802 240.27618762 -38.42328842 237.21951185 -38.4247818 234.16278553 C-38.42941093 231.97140386 -38.43443572 229.780023 -38.43982697 227.58864307 C-38.45294424 221.63391247 -38.45939468 215.67919314 -38.46383762 209.72445035 C-38.46676956 206.00311554 -38.47087462 202.28178381 -38.4753418 198.56045055 C-38.48901525 186.91423585 -38.49869837 175.26802761 -38.50254369 163.62180549 C-38.50298715 162.2822754 -38.50343371 160.94274531 -38.50388336 159.60321522 C-38.50410479 158.93876812 -38.50432622 158.27432102 -38.50455436 157.58973917 C-38.50850005 146.83001481 -38.52594818 136.07035827 -38.54924288 125.3106601 C-38.57299037 114.2521488 -38.58516262 103.19367319 -38.58658481 92.13513631 C-38.5876322 85.93091176 -38.59352607 79.72678288 -38.61140442 73.52258205 C-38.62790117 67.68425534 -38.6300327 61.84609606 -38.62126541 56.00775433 C-38.62049589 53.86885727 -38.62482651 51.72995115 -38.63472366 49.59107685 C-38.64747508 46.66286232 -38.64154888 43.73523797 -38.63114166 40.80702686 C-38.63919807 39.96799346 -38.64725447 39.12896005 -38.65555501 38.26450139 C-38.56465534 27.26927625 -34.86485469 18.22929653 -27.44724274 10.15765858 C-19.75805832 2.85681681 -10.45626717 0.01705121 0 0 Z " fill="#FCB33F" transform="translate(80.2636489868164,112.86577892303467)"/>
<path d="M0 0 C1.49906909 -0.00373975 2.99813624 -0.00834256 4.49720031 -0.01373065 C8.6042229 -0.02593612 12.71116389 -0.02570307 16.81820047 -0.02334189 C21.25258213 -0.0229331 25.68693785 -0.03397886 30.12130737 -0.04345703 C38.80480508 -0.06005484 47.48827563 -0.06556604 56.17178788 -0.06668179 C63.23241667 -0.0676329 70.29303653 -0.07174633 77.35366249 -0.07808304 C97.38340856 -0.09569258 117.41313322 -0.10492243 137.44288709 -0.10342209 C139.06187873 -0.10330222 139.06187873 -0.10330222 140.71357727 -0.10317993 C141.794227 -0.10309817 142.87487673 -0.10301641 143.98827342 -0.10293217 C161.49683963 -0.10211948 179.00531976 -0.12125354 196.51386108 -0.14945666 C214.50285066 -0.17820442 232.49179829 -0.1919959 250.48081142 -0.19026911 C260.57568136 -0.18960584 270.67046107 -0.19507071 280.76531029 -0.21662521 C289.36124241 -0.23486195 297.95704341 -0.23916393 306.55298652 -0.22560637 C310.93539608 -0.21908913 315.31755429 -0.21891431 319.69993973 -0.23631287 C323.71895588 -0.25210411 327.73752264 -0.2491188 331.75652824 -0.2317446 C333.20335002 -0.22868794 334.65020585 -0.23225635 336.09698745 -0.24346475 C350.09489333 -0.34464687 361.76378561 1.9834893 371.9823761 11.89242554 C377.14518591 17.42675268 380.32946011 23.7812945 381.24409485 31.32992554 C381.01472529 34.43081338 380.74422889 35.83875289 378.49433899 38.04257202 C377.66023499 38.61048462 376.82613098 39.17839722 375.9667511 39.76351929 C374.96845276 40.45115356 373.97015442 41.13878784 372.94160461 41.84725952 C371.73070829 42.65514225 370.51896924 43.46176262 369.30659485 44.26742554 C367.84537808 45.2502857 366.3843723 46.23345958 364.92353821 47.21688843 C359.0314255 51.16930817 353.11238403 55.08087064 347.19477844 58.9949646 C338.5864356 64.69282916 330.00699705 70.37787377 321.70600891 76.51791382 C317.54196438 79.55409037 313.23357834 82.36935397 308.93159485 85.20492554 C298.01848868 92.44052017 287.1556037 99.7486405 276.30659485 107.07992554 C275.5314856 107.60327484 274.75637634 108.12662415 273.95777893 108.66583252 C272.81680756 109.43626389 272.81680756 109.43626389 271.65278625 110.22225952 C270.89993851 110.7306134 270.14709076 111.23896729 269.37142944 111.76272583 C267.1436183 113.27036094 264.92053401 114.7847939 262.69746399 116.29940796 C259.72950965 118.31765007 256.73819005 120.29324457 253.72627258 122.24520874 C252.99275574 122.72862228 252.25923889 123.21203583 251.50349426 123.71009827 C250.12321362 124.61953947 248.73497744 125.5170718 247.33747864 126.39982605 C241.91192041 130.01029244 240.22106447 133.88454483 238.4120636 140.13851929 C236.45795502 145.66940612 232.42879648 149.23442147 228.30659485 153.26742554 C227.40038391 154.1968396 226.49417297 155.12625366 225.5605011 156.08383179 C220.95167404 160.80161078 216.21790998 165.31051915 211.2011261 169.59164429 C208.44136685 172.03275092 205.89448509 174.67033154 203.3105011 177.29476929 C200.72413333 179.84080383 197.99124205 182.1876411 195.2401886 184.55258179 C193.35164888 186.22746853 191.57503837 187.96690141 189.80659485 189.76742554 C186.76089299 192.86158174 183.5811536 195.74200737 180.2792511 198.56039429 C178.98838453 199.6774412 177.72350975 200.82543171 176.4901886 202.00570679 C173.74687867 204.57717628 171.47271961 206.19533366 167.99409485 207.70492554 C162.39302727 207.0403921 159.74923467 203.72049056 155.86714172 199.81576538 C153.51491404 197.48193748 151.08329414 195.23570165 148.65791321 192.97836304 C146.58276169 191.04609406 144.51603021 189.10516915 142.4511261 187.16195679 C138.57875047 183.52060613 134.6945305 179.89214774 130.80659485 176.26742554 C128.95211565 174.53679167 127.09785063 172.80592852 125.24360657 171.07504272 C123.90443145 169.82532599 122.56488947 168.57600232 121.22505188 167.32699585 C117.13393101 163.51211225 113.05407099 159.68587959 108.98774719 155.84457397 C107.58236485 154.52613513 106.15942575 153.22644356 104.7323761 151.93148804 C98.97190841 146.55505153 94.56109466 140.01185173 92.52851868 132.32479858 C91.07407923 128.68564869 89.80051797 127.71996045 86.5292511 125.63851929 C85.06322449 124.68634521 85.06322449 124.68634521 83.56758118 123.7149353 C82.51208069 123.05163208 81.4565802 122.38832886 80.36909485 121.70492554 C78.14448062 120.26583478 75.92052785 118.82572101 73.69721985 117.38461304 C72.59829407 116.67917358 71.49936829 115.97373413 70.36714172 115.24691772 C66.39922385 112.68055859 62.50388813 110.01971178 58.61909485 107.32992554 C49.36363368 100.9638492 40.05394288 94.67852682 30.74409485 88.39242554 C29.9503949 87.85644745 29.15669495 87.32046936 28.33894348 86.76824951 C25.09106465 84.57500083 21.84311757 82.38185327 18.595047 80.18888855 C0.46256488 67.94639089 -17.66949171 55.70292817 -35.75590515 43.39242554 C-37.12186829 42.46405884 -37.12186829 42.46405884 -38.51542664 41.51693726 C-39.32826111 40.96280151 -40.14109558 40.40866577 -40.9785614 39.83773804 C-42.02862366 39.12255005 -42.02862366 39.12255005 -43.09989929 38.39291382 C-44.69340515 37.26742554 -44.69340515 37.26742554 -45.69340515 36.26742554 C-47.09637964 27.79630111 -44.18823857 21.32361636 -39.69340515 14.26742554 C-29.96660112 1.29835349 -15.00829049 -0.03551478 0 0 Z " fill="#FDCD83" transform="translate(88.69340515136719,112.73257446289063)"/>
<path d="M0 0 C0.33 0 0.66 0 1 0 C1.1546875 0.86753906 1.309375 1.73507813 1.46875 2.62890625 C3.675951 7.48812682 7.05278251 9.18272378 11.5 11.9375 C13.42846459 13.17754206 15.3554441 14.41989547 17.28125 15.6640625 C18.35117187 16.35016602 19.42109375 17.03626953 20.5234375 17.74316406 C26.36790137 21.51625169 32.10620793 25.44946984 37.85986328 29.35891724 C41.51831325 31.84373971 45.1813831 34.32173735 48.84375 36.80078125 C49.59261475 37.3079216 50.34147949 37.81506195 51.11303711 38.33757019 C58.79812947 43.54195029 66.48897829 48.73779788 74.18026733 53.93301392 C78.80124591 57.05449822 83.42165912 60.17681934 88.04219055 63.29896545 C91.95412485 65.94222582 95.86627241 68.58516966 99.77880859 71.22753906 C103.67643519 73.85986925 107.57350787 76.49301766 111.47021484 79.12670898 C112.9242778 80.10926617 114.37853539 81.09153538 115.83300781 82.07348633 C119.09120389 84.27326559 122.34666604 86.47670063 125.59423828 88.69213867 C127.73847556 90.15353826 129.89458093 91.57902621 132.07373047 92.98950195 C136.85175636 96.14000471 140.00719186 98.24279798 141.75 103.9375 C143.47449171 108.84614249 145.47783646 112.46003732 148.765625 116.4765625 C150 118 150 118 151 120 C150.35675781 120.52207031 149.71351563 121.04414063 149.05078125 121.58203125 C143.80106769 125.8581888 138.59404074 130.17481653 133.4375 134.5625 C128.88359314 138.43548619 124.26504934 142.20622706 119.578125 145.91796875 C116.59032832 148.33084092 113.66943803 150.81796079 110.75 153.3125 C106.29360367 157.11744553 101.75821394 160.7878906 97.125 164.375 C91.38126264 168.82914667 85.87265247 173.50929736 80.40380859 178.29541016 C75.03589278 182.9900572 69.54737385 187.51878809 64 192 C58.17564054 196.73122455 52.39525844 201.50419652 46.6875 206.375 C41.69444521 210.63273556 36.58063464 214.70102018 31.39160156 218.71630859 C26.10867505 222.83946076 21.0619375 227.213779 16.06103516 231.67333984 C12.86176196 234.50127665 9.77460281 236.94501775 6 239 C5.17988688 237.44148245 4.36923787 235.87798284 3.5625 234.3125 C3.11003906 233.44238281 2.65757813 232.57226562 2.19140625 231.67578125 C-0.26097851 226.16796629 -0.14037863 220.81568313 -0.12025452 214.89482117 C-0.12110894 213.97583331 -0.12196337 213.05684546 -0.12284368 212.11000949 C-0.1244911 209.02994419 -0.11898915 205.94993333 -0.11352539 202.86987305 C-0.11324333 200.66226706 -0.11340161 198.45466098 -0.1139679 196.24705505 C-0.11425515 190.25166637 -0.10837002 184.25629765 -0.10139394 178.26091361 C-0.09514845 171.9961938 -0.09455565 165.73147354 -0.09336853 159.4667511 C-0.09061221 148.9510567 -0.0843633 138.43536848 -0.07543945 127.91967773 C-0.0662581 117.08927446 -0.0591808 106.25887318 -0.05493164 95.4284668 C-0.05466892 94.7606934 -0.05440619 94.09292001 -0.05413551 93.40491106 C-0.05283046 90.05483229 -0.05156675 86.7047535 -0.05032361 83.3546747 C-0.03986721 55.56977803 -0.02227458 27.78488953 0 0 Z " fill="#FA8800" transform="translate(42,144)"/>
<path d="M0 0 C0.33 0 0.66 0 1 0 C1.07010711 29.03324776 1.12299658 58.06648282 1.15543652 87.0997982 C1.15849601 89.78446841 1.16161997 92.46913853 1.16479492 95.15380859 C1.16558185 95.8210832 1.16636878 96.4883578 1.16717956 97.17585285 C1.18021945 107.96822193 1.20386544 118.76054287 1.23145839 129.55288343 C1.2595521 140.63382829 1.2759602 151.71475357 1.28226548 162.79573309 C1.28617354 169.01680763 1.29534716 175.23777314 1.31719017 181.45881271 C1.337594 187.31758226 1.34382586 193.17619814 1.33932304 199.03499985 C1.34014649 201.18195939 1.34608878 203.32892422 1.35761642 205.47585297 C1.37262141 208.41527153 1.36892439 211.35411573 1.36076355 214.29354858 C1.36950207 215.13599259 1.3782406 215.97843659 1.38724393 216.8464092 C1.32813925 224.76435474 -0.40111893 232.4301699 -5 239 C-10.54171932 234.97953696 -15.79664326 230.68478182 -21.00415039 226.24536133 C-26.27450653 221.75383068 -31.62668449 217.36778278 -37 213 C-42.82281111 208.26683775 -48.60470548 203.49583427 -54.3125 198.625 C-58.74860809 194.84219049 -63.26590261 191.19454378 -67.875 187.625 C-73.55837978 183.21980687 -78.99232688 178.58085649 -84.39404297 173.83642578 C-88.49670732 170.25176925 -92.68802825 166.82907346 -97 163.5 C-102.70723034 159.09166771 -108.17068441 154.45288822 -113.59667969 149.70410156 C-118.96450016 145.00971387 -124.45265673 140.48086446 -130 136 C-136.43564733 130.77712252 -142.81142503 125.51474732 -149 120 C-147.70941816 117.31227451 -146.27994951 114.85215372 -144.625 112.375 C-142.6325826 109.32146511 -141.62872782 106.69064971 -140.6875 103.1875 C-138.65514032 97.94864539 -135.45813145 95.84788862 -130.91796875 92.91015625 C-129.85471878 92.20128265 -129.85471878 92.20128265 -128.76998901 91.47808838 C-127.27087208 90.4790061 -125.768701 89.48449327 -124.26370239 88.49429321 C-121.37965154 86.59050161 -118.52123587 84.65034335 -115.66294861 82.70817566 C-112.75537953 80.73334487 -109.8411031 78.76851444 -106.92724609 76.80297852 C-103.71148046 74.63378602 -100.49674259 72.46307229 -97.28192139 70.29248047 C-95.61990366 69.17033467 -93.95783497 68.04826437 -92.29571533 66.92626953 C-83.50336036 60.99081725 -74.71739681 55.04593181 -65.93185425 49.10040283 C-57.6595346 43.50237642 -49.38459463 37.90826905 -41.10546875 32.3203125 C-39.43423772 31.19206776 -37.76301372 30.06381262 -36.09179688 28.93554688 C-32.17553551 26.29163617 -28.2581721 23.64936316 -24.34060669 21.00738525 C-22.22067823 19.57468488 -20.1050451 18.13581237 -17.98974609 16.69628906 C-15.37136471 14.91679114 -12.73444186 13.17218026 -10.07666016 11.45214844 C-9.16464592 10.85072525 -9.16464592 10.85072525 -8.23420715 10.2371521 C-6.60798348 9.1648658 -4.97289858 8.10605188 -3.3371582 7.04833984 C-0.66999775 4.71077835 -0.24332199 3.47916383 0 0 Z " fill="#FA8800" transform="translate(469,144)"/>
<path d="M0 0 C2.2266808 1.52370625 4.29600484 3.07686842 6.31640625 4.86328125 C8.21395324 6.37304795 8.21395324 6.37304795 12 6 C13.85628319 4.83938699 13.85628319 4.83938699 15.625 3.25 C25.72823122 -4.7681366 37.54772752 -5.9915225 50 -5 C61.84731895 -2.86449015 71.58832755 4.07273177 78.56640625 13.76171875 C85.64743595 24.81738638 86.95698722 36.90239602 84.19921875 49.72265625 C81.42413277 57.72367735 76.98799259 63.14157757 71 69 C70.09378906 69.92941406 69.18757812 70.85882813 68.25390625 71.81640625 C63.6450792 76.53418524 58.91131513 81.04309361 53.89453125 85.32421875 C51.134772 87.76532539 48.58789024 90.402906 46.00390625 93.02734375 C43.41753849 95.57337829 40.6846472 97.92021557 37.93359375 100.28515625 C36.04505403 101.96004299 34.26844352 103.69947587 32.5 105.5 C29.45429814 108.59415621 26.27455875 111.47458183 22.97265625 114.29296875 C21.68178968 115.41001566 20.4169149 116.55800617 19.18359375 117.73828125 C16.44028382 120.30975074 14.16612476 121.92790812 10.6875 123.4375 C5.08643242 122.77296656 2.44263982 119.45306502 -1.43945312 115.54833984 C-3.79168081 113.21451194 -6.22330071 110.96827611 -8.64868164 108.7109375 C-10.72383316 106.77866852 -12.79056464 104.83774361 -14.85546875 102.89453125 C-18.72784438 99.25318059 -22.61206435 95.6247222 -26.5 92 C-28.3544792 90.26936613 -30.20874422 88.53850299 -32.06298828 86.80761719 C-33.4021634 85.55790045 -34.74170538 84.30857678 -36.08154297 83.05957031 C-40.17266384 79.24468672 -44.25252386 75.41845405 -48.31884766 71.57714844 C-49.72423 70.25870959 -51.1471691 68.95901803 -52.57421875 67.6640625 C-61.44090351 59.38849005 -65.75697436 49.24356005 -66.375 37.25 C-66.06326925 25.44090583 -61.09931049 15.47972487 -53.12109375 7.00390625 C-38.68032095 -6.5616682 -17.37686188 -9.34006326 0 0 Z " fill="#E92D8A" transform="translate(246,197)"/>
<path d="M0 0 C0.74765625 0.42152344 1.4953125 0.84304688 2.265625 1.27734375 C3.25046875 1.82519531 4.2353125 2.37304688 5.25 2.9375 C6.22453125 3.48277344 7.1990625 4.02804687 8.203125 4.58984375 C12.6647323 6.83934128 16.24935975 7.12659756 21.23709869 7.13701439 C22.52651886 7.14208893 23.81593904 7.14716347 25.14443254 7.15239179 C26.57858813 7.15299345 28.01274376 7.15349254 29.44689941 7.15390015 C30.9679766 7.15791548 32.48905272 7.16235382 34.01012754 7.1671797 C38.19650433 7.17914331 42.38286959 7.18479317 46.56926012 7.18936086 C51.08207994 7.19531781 55.594886 7.20692749 60.10769653 7.21765137 C71.01014469 7.2421741 81.91259741 7.25680279 92.81506467 7.26971143 C95.89472244 7.2734236 98.97437977 7.27739682 102.05403709 7.2814641 C121.18028947 7.30670199 140.30654257 7.32875406 159.43280792 7.34119225 C163.86308291 7.34412192 168.29335788 7.34708359 172.72363281 7.35009766 C174.37530941 7.35121673 174.37530941 7.35121673 176.06035322 7.35235842 C193.89318743 7.3650089 211.72592186 7.39822785 229.55870944 7.43989949 C247.86961563 7.48233739 266.18047076 7.50588947 284.49142599 7.51111281 C294.77135507 7.51452492 305.05112826 7.52625656 315.33100891 7.55921555 C324.08700777 7.58724274 332.84281878 7.59820367 341.59885901 7.58702008 C346.06421116 7.58184019 350.52917008 7.58467651 354.99446487 7.60948563 C359.08828936 7.63204036 363.18143956 7.63119049 367.27527636 7.61228175 C368.75047079 7.60949041 370.22571155 7.61503193 371.70083171 7.63009469 C382.44420108 7.7330248 390.9735806 6.01761293 400 0 C402.31 1.98 404.62 3.96 407 6 C405.53190505 11.87237978 401.79705549 14.50797306 397 18 C390.0986143 21.57811873 383.48558458 23.12262323 375.73076439 23.13142776 C373.82407307 23.13718948 373.82407307 23.13718948 371.87886274 23.1430676 C370.47054182 23.1422874 369.06222095 23.14140862 367.65390015 23.14044189 C366.15599638 23.14302625 364.6580933 23.14603961 363.16019118 23.1494453 C359.04254834 23.15751034 354.92492295 23.15930459 350.80727315 23.16004276 C346.36674994 23.1618942 341.92623576 23.16944202 337.48571777 23.17617798 C327.77484241 23.18975863 318.06397118 23.19578569 308.3530879 23.20018864 C302.28862006 23.20295169 296.22415381 23.20718918 290.15968704 23.21169281 C273.36651141 23.22388546 256.57333705 23.23418457 239.78015709 23.2375679 C238.70538938 23.23778747 237.63062167 23.23800703 236.52328525 23.23823325 C234.90728947 23.23856067 234.90728947 23.23856067 233.25864732 23.2388947 C231.0755891 23.23933817 228.89253088 23.23978473 226.70947266 23.24023438 C225.6266018 23.2404558 224.54373095 23.24067723 223.42804582 23.24090537 C205.88562291 23.24485253 188.34324156 23.26230408 170.8008347 23.2855939 C152.78709396 23.30931626 134.77337406 23.32177017 116.75961745 23.32293582 C106.64689535 23.32385212 96.5342274 23.329593 86.42152023 23.34775543 C77.80937531 23.36316839 69.19730126 23.36826984 60.58514516 23.36001733 C56.19291632 23.35611498 51.80083015 23.3570201 47.40861893 23.37107468 C43.38287292 23.38383851 39.35737644 23.38259441 35.33163066 23.37048396 C33.88004384 23.36853125 32.42843919 23.37158565 30.97687738 23.38032833 C16.53227056 23.4617762 5.80703842 21.10571551 -5.125 11.375 C-7 9 -7 9 -7.1875 7 C-5.35901997 3.92045468 -2.83644564 2.17259666 0 0 Z " fill="#E99C2D" transform="translate(56,376)"/>
<path d="M0 0 C8.10831631 4.63332361 13.97934683 12.8612267 16.53051758 21.87426758 C18.96352086 32.89047121 17.63289409 45.26445939 12 55 C9.28817663 58.66286363 6.25368803 61.81671635 3 65 C2.09378906 65.92941406 1.18757813 66.85882813 0.25390625 67.81640625 C-4.3549208 72.53418524 -9.08868487 77.04309361 -14.10546875 81.32421875 C-16.865228 83.76532539 -19.41210976 86.402906 -21.99609375 89.02734375 C-24.58246151 91.57337829 -27.3153528 93.92021557 -30.06640625 96.28515625 C-31.95494597 97.96004299 -33.73155648 99.69947587 -35.5 101.5 C-38.54570186 104.59415621 -41.72544125 107.47458183 -45.02734375 110.29296875 C-46.31821032 111.41001566 -47.5830851 112.55800617 -48.81640625 113.73828125 C-51.55971618 116.30975074 -53.83387524 117.92790812 -57.3125 119.4375 C-63.38181198 118.71741214 -66.95445773 114.34877304 -71 110 C-71.66 109.01 -72.32 108.02 -73 107 C-72.175 107.144375 -71.35 107.28875 -70.5 107.4375 C-65.18793437 106.7734918 -62.75370227 103.63302487 -59 100 C-57.14859618 98.30946926 -55.2941876 96.62222593 -53.4375 94.9375 C-44.86921782 87.07572529 -36.38641247 79.12086921 -27.91015625 71.16015625 C-27.23235107 70.52408447 -26.5545459 69.8880127 -25.85620117 69.23266602 C-24.49916062 67.95765419 -23.14383817 66.68081114 -21.7902832 65.40209961 C-18.76483151 62.55148652 -15.72697467 59.73643392 -12.5703125 57.03125 C-3.58198931 49.28175044 3.92716771 40.23823497 5 28 C5.56267037 19.7475012 4.94913746 12.73968758 2 5 C1.4121875 3.453125 1.4121875 3.453125 0.8125 1.875 C0.4103125 0.946875 0.4103125 0.946875 0 0 Z " fill="#DD1A71" transform="translate(314,201)"/>
<path d="M0 0 C0.33 0 0.66 0 1 0 C1.07010711 29.03324776 1.12299658 58.06648282 1.15543652 87.0997982 C1.15849601 89.78446841 1.16161997 92.46913853 1.16479492 95.15380859 C1.16558185 95.8210832 1.16636878 96.4883578 1.16717956 97.17585285 C1.18021945 107.96822193 1.20386544 118.76054287 1.23145839 129.55288343 C1.2595521 140.63382829 1.2759602 151.71475357 1.28226548 162.79573309 C1.28617354 169.01680763 1.29534716 175.23777314 1.31719017 181.45881271 C1.337594 187.31758226 1.34382586 193.17619814 1.33932304 199.03499985 C1.34014649 201.18195939 1.34608878 203.32892422 1.35761642 205.47585297 C1.37262141 208.41527153 1.36892439 211.35411573 1.36076355 214.29354858 C1.36950207 215.13599259 1.3782406 215.97843659 1.38724393 216.8464092 C1.32813925 224.76435474 -0.40111893 232.4301699 -5 239 C-7.64 237.02 -10.28 235.04 -13 233 C-11.63875 231.2365625 -11.63875 231.2365625 -10.25 229.4375 C-3.78965139 220.78307074 -0.69529355 213.00337975 -0.7215271 202.14784241 C-0.7157347 201.28023189 -0.7099423 200.41262136 -0.70397437 199.51871961 C-0.68702963 196.62450213 -0.68410263 193.73044464 -0.68115234 190.83618164 C-0.67185036 188.75635388 -0.66168128 186.67652984 -0.65071106 184.59671021 C-0.62342755 178.95888267 -0.60826647 173.3210801 -0.59528303 167.68320394 C-0.57964534 161.78815808 -0.55285712 155.89316316 -0.5272522 149.99815369 C-0.48047578 138.83883467 -0.44372612 127.67950607 -0.41057932 116.52013916 C-0.37234995 103.8140202 -0.32294189 91.1079524 -0.27259517 78.40187657 C-0.1692922 52.26795564 -0.08002643 26.13400184 0 0 Z " fill="#EF7E01" transform="translate(469,144)"/>
<path d="M0 0 C0.33 0 0.66 0 1 0 C1.00146656 1.08337332 1.00293312 2.16674664 1.00444412 3.28294945 C1.04105722 29.65737067 1.10053066 56.03166508 1.18390274 82.40598106 C1.22369314 95.16046736 1.25608569 107.91489195 1.27099609 120.66943359 C1.28401253 131.78773599 1.31097721 142.90590262 1.35461307 154.02412856 C1.3772278 159.90984702 1.39291066 165.79539803 1.39188385 171.68116379 C1.39113727 177.22487024 1.40908805 182.76820651 1.44116783 188.31181717 C1.44966275 190.3426469 1.45141955 192.37351818 1.44580269 194.40435791 C1.32840135 211.52074352 1.32840135 211.52074352 9.125 226.4375 C9.62257813 227.05496094 10.12015625 227.67242187 10.6328125 228.30859375 C11.08398438 228.86675781 11.53515625 229.42492187 12 230 C12.66 230.99 13.32 231.98 14 233 C11.69 234.98 9.38 236.96 7 239 C0.93408554 232.93408554 -0.10840634 225.6975919 -0.12908131 217.49181575 C-0.12616847 216.63480753 -0.12325563 215.77779932 -0.12025452 214.89482117 C-0.12110894 213.97583331 -0.12196337 213.05684546 -0.12284368 212.11000949 C-0.1244911 209.02994419 -0.11898915 205.94993333 -0.11352539 202.86987305 C-0.11324333 200.66226706 -0.11340161 198.45466098 -0.1139679 196.24705505 C-0.11425515 190.25166637 -0.10837002 184.25629765 -0.10139394 178.26091361 C-0.09514845 171.9961938 -0.09455565 165.73147354 -0.09336853 159.4667511 C-0.09061221 148.9510567 -0.0843633 138.43536848 -0.07543945 127.91967773 C-0.0662581 117.08927446 -0.0591808 106.25887318 -0.05493164 95.4284668 C-0.05466892 94.7606934 -0.05440619 94.09292001 -0.05413551 93.40491106 C-0.05283046 90.05483229 -0.05156675 86.7047535 -0.05032361 83.3546747 C-0.03986721 55.56977803 -0.02227458 27.78488953 0 0 Z " fill="#EE7E01" transform="translate(42,144)"/>
<path d="M0 0 C1.77329931 2.65994896 2.68826571 4.72116341 3.75 7.6875 C5.75431286 12.84144737 8.55026661 16.73218698 12 21 C12.66 21.99 13.32 22.98 14 24 C11.69 25.98 9.38 27.96 7 30 C1.73181679 24.73181679 0.09107301 18.51541825 -0.09765625 11.23046875 C-0.09108215 9.88277758 -0.07926444 8.53510293 -0.0625 7.1875 C-0.05798828 6.49462891 -0.05347656 5.80175781 -0.04882812 5.08789062 C-0.03713156 3.39188932 -0.01919924 1.69593297 0 0 Z " fill="#DB7200" transform="translate(42,353)"/>
<path d="M0 0 C0.33 0 0.66 0 1 0 C1.38916112 10.81003107 1.44907676 20.78703319 -5 30 C-7.64 28.02 -10.28 26.04 -13 24 C-11.63875 22.2365625 -11.63875 22.2365625 -10.25 20.4375 C-5.44670311 13.99543122 -2.30801597 7.71087153 0 0 Z " fill="#DC7200" transform="translate(469,353)"/>
<path d="M0 0 C0.66 0.33 1.32 0.66 2 1 C-2.29 5.29 -6.58 9.58 -11 14 C-11 10.30159372 -10.17133056 9.68584567 -7.75 7 C-7.14671875 6.319375 -6.5434375 5.63875 -5.921875 4.9375 C-4.06233388 3.06284066 -2.15205789 1.52358081 0 0 Z " fill="#F9B75E" transform="translate(59,118)"/>
</svg>
